.
..............................Site Info...........................

 -   http://www.scenetime.com  *_*    

Scenetime .Always on time . friendly online private torrent community ..

     We care to share . Join us on  http://www.scenetime.com 

    Be the first to get new release at  http://www.scenetime.com

        Seed back for speed


...................................NFO:.................................................                                                                                                     
       
     
     
       
       
     
     
                                         
                                         
                EXVID                    
                                         
         
                                         
         Filled the Archives             
                                         
         
                                         
                With:                    
                                         
         
                                         
                                    
     E240                           
                                    
     SP               (C) 2009      
                                         
     
     
     
                                                                                  
                                                                                   
            Fireflies.in.the.Garden.2008.WS.DVDRip.XviD-EXViD                       
                                                                                   
                                                                                  
     
                                                                                               
EXViD aims to iNTERNAL those releases which have been lost in the archives.
EXViD aims to PRE non-internal releases which have poor sources and are likely skipped by others. 
http://www.imdb.com/title/tt0961108/
Subtitles: Dutch
Date: 2012.10

Director: Dennis Lee

Genre: Drama

Plot:
The Taylor family is devastated by an accident that takes place on the day their matriarch is
due to graduate from college -- decades after leaving to raise her children.

Cast:
Ryan Reynolds	 ...	Michael Taylor
Willem Dafoe	 ...	Charles Taylor
Emily Watson	 ...	Jane Lawrence
Carrie-Anne Moss	 ...	Kelly Hanson (as Carrie Anne Moss)
Julia Roberts	 ...	Lisa Taylor
Ioan Gruffudd	 ...	Addison Wesley
Hayden Panettiere	 ...	Young Jane Lawrence
Shannon Lucio	 ...	Ryne Taylor
Cayden Boyd	 ...	Young Michael Taylor
George Newbern	 ...	Jimmy Lawrence (as George Newburn)
Chase Ellison	 ...	Christopher Lawrence
Brooklynn Proulx	 ...	Leslie Lawrence
Diane Perella	 ...	Flight Attendant
Natalie Karp	 ...	Social Worker
John C. Stennfeld	 ...	Reverend Byers (as Reverend John Stennfeld)

Stats:
Format                           : AVI
Format/Info                      : Audio Video Interleave
File size                        : 701 MiB
Duration                         : 1h 35mn
Overall bit rate                 : 1 025 Kbps
Writing application              : Nandub v1.0rc2
Writing library                  : Nandub build 1852/release

Video
ID                               : 0
Format                           : MPEG-4 Visual
Format profile                   : Advanced Simple@L5
Format settings, BVOP            : 1
Format settings, QPel            : No
Format settings, GMC             : No warppoints
Format settings, Matrix          : Default (H.263)
Codec ID                         : XVID
Codec ID/Hint                    : XviD
Duration                         : 1h 35mn
Bit rate                         : 892 Kbps
Width                            : 624 pixels
Height                           : 256 pixels
Display aspect ratio             : 2.40:1
Frame rate                       : 25.000 fps
Color space                      : YUV
Chroma subsampling               : 4:2:0
Bit depth                        : 8 bits
Scan type                        : Progressive
Compression mode                 : Lossy
Bits/(Pixel*Frame)               : 0.223
Stream size                      : 609 MiB (87%)
Writing library                  : XviD 64

Audio
ID                               : 1
Format                           : MPEG Audio
Format version                   : Version 1
Format profile                   : Layer 3
Mode                             : Joint stereo
Mode extension                   : MS Stereo
Codec ID                         : 55
Codec ID/Hint                    : MP3
Duration                         : 1h 35mn
Bit rate mode                    : Variable
Bit rate                         : 120 Kbps
Nominal bit rate                 : 128 Kbps
Channel(s)                       : 2 channels
Sampling rate                    : 48.0 KHz
Compression mode                 : Lossy
Stream size                      : 82.3 MiB (12%)
Alignment                        : Aligned on interleaves
Interleave, duration             : 24 ms (0.60 video frame)
Interleave, preload duration     : 481 ms
Writing library                  : LAME3.98r
Encoding settings                : -m j -V 4 -q 3 -lowpass 17 --abr 128




Release notes:
HLS rip was 1.77:1. Ours is 2.40:1.

enjoy!

Looking for:
75TB+ Archives
DUTCH/FLEMiSH Archives
                                                                                                    
Greets: CRBS EPiSODE FiCO FLS iLS KLASSiGER LiPSYNC MADE NODLABS RUNNER SPRiNTER      
   

                                                                    ASCII DONE BY XX^NFO 2oo9     
 
 	 		
RLS-Crc: 4455535459:029AED9D09